<svg display="none" width="0" height="0" version="1.1" xmlns="http://www.w3.org/2000/svg" xmlns:xlink="http://www.w3.org/1999/xlink">
<defs>
<symbol id="icon-cog" viewBox="0 0 1024 1024">
	<title>cog</title>
	<path class="path1" d="M512 0q53 0 90.5 37.5t37.5 90.5v22q15.667 5.333 37.667 15.333l15.333-15.333q37.667-37.667 90.667-37.667 52.667 0 90.333 37.667t37.667 90.333q0 53-37.667 90.667l-15.333 15.333q10 22 15.333 37.667h22q53 0 90.5 37.5t37.5 90.5-37.5 90.5-90.5 37.5h-22q-5.333 15.667-15.333 37.667l15.333 15.333q37.667 37.667 37.667 90.667 0 52.667-37.667 90.333t-90.333 37.667q-53 0-90.667-37.667l-15.333-15.333q-22 10-37.667 15.333v22q0 53-37.5 90.5t-90.5 37.5-90.5-37.5-37.5-90.5v-22q-15.667-5.333-37.667-15.333l-15.333 15.333q-37.667 37.667-90.333 37.667-53 0-90.5-37.667t-37.5-90.333q0-53.333 37.333-90.667l15.333-15.333q-10-22-15.333-37.667h-22q-53 0-90.5-37.5t-37.5-90.5 37.5-90.5 90.5-37.5h22q5.333-15.667 15.333-37.667l-15.333-15.333q-37.333-37.333-37.333-90.667 0-52.667 37.5-90.333t90.5-37.667q52.667 0 90.333 37.667l15.333 15.333q22-10 37.667-15.333v-22q0-53 37.5-90.5t90.5-37.5zM512 85.333q-17.667 0-30.167 12.5t-12.5 30.167v88.333q-74.667 10.667-136.333 56.333l-62.333-62.333q-12.667-12.667-30-12.667-17.667 0-30.167 12.5t-12.5 30.167q0 18 12.333 30.333l62.333 62.333q-45.667 61.667-56.333 136.333h-88.333q-17.667 0-30.167 12.5t-12.5 30.167 12.5 30.167 30.167 12.5h88.333q10.667 74.667 56.333 136.333l-62.333 62.333q-12.333 12.333-12.333 30.333 0 17.667 12.5 30.167t30.167 12.5q17.333 0 30-12.667l62.333-62.333q61.667 45.667 136.333 56.333v88.333q0 17.667 12.5 30.167t30.167 12.5 30.167-12.5 12.5-30.167v-88.333q74.667-10.667 136.333-56.333l62.333 62.333q12.667 12.667 30.333 12.667t30.167-12.5 12.5-30.167-12.667-30.333l-62.333-62.333q45.667-61.667 56.333-136.333h88.333q17.667 0 30.167-12.5t12.5-30.167-12.5-30.167-30.167-12.5h-88.333q-10.667-74.667-56.333-136.333l62.333-62.333q12.667-12.667 12.667-30.333t-12.5-30.167-30.167-12.5-30.333 12.667l-62.333 62.333q-61.667-45.667-136.333-56.333v-88.333q0-17.667-12.5-30.167t-30.167-12.5zM512 341.333q70.667 0 120.667 50t50 120.667-50 120.667-120.667 50-120.667-50-50-120.667 50-120.667 120.667-50zM512 426.667q-35.333 0-60.333 25t-25 60.333 25 60.333 60.333 25 60.333-25 25-60.333-25-60.333-60.333-25z"></path>
</symbol>
<symbol id="icon-heart" viewBox="0 0 1024 1024">
	<title>heart</title>
	<path class="path1" d="M753.333 85.333q69.667 0 128.5 34.333t93.167 93.167 34.333 128.5q0 50-19.167 97.167t-55.833 83.833l-422.333 422.333-422.333-422.333q-36.667-36.667-55.833-83.833t-19.167-97.167q0-69.667 34.333-128.5t93.167-93.167 128.5-34.333q50.333 0 97.167 19t83.833 56l60.333 60.333 60.333-60.333q36.667-36.667 83.833-55.833t97.167-19.167zM753.333 170.667q-33.333 0-64.667 12.667t-56 37.333l-120.667 120.667-120.667-120.667q-24.667-24.667-56-37.333t-64.667-12.667q-46.667 0-85.833 22.833t-62 62-22.833 85.833q0 33.333 12.667 64.667t37.333 56l362 362 362-362q24.667-24.667 37.333-56t12.667-64.667q0-46.667-22.833-85.833t-62-62-85.833-22.833z"></path>
</symbol>
<symbol id="icon-align-justify" viewBox="0 0 1024 1024">
	<title>align-justify</title>
	<path class="path1" d="M128 213.333h768q17.667 0 30.167 12.5t12.5 30.167-12.5 30.167-30.167 12.5h-768q-17.667 0-30.167-12.5t-12.5-30.167 12.5-30.167 30.167-12.5zM128 725.333h768q17.667 0 30.167 12.5t12.5 30.167-12.5 30.167-30.167 12.5h-768q-17.667 0-30.167-12.5t-12.5-30.167 12.5-30.167 30.167-12.5zM128 554.667h768q17.667 0 30.167 12.5t12.5 30.167-12.5 30.167-30.167 12.5h-768q-17.667 0-30.167-12.5t-12.5-30.167 12.5-30.167 30.167-12.5zM128 384h768q17.667 0 30.167 12.5t12.5 30.167-12.5 30.167-30.167 12.5h-768q-17.667 0-30.167-12.5t-12.5-30.167 12.5-30.167 30.167-12.5z"></path>
</symbol>
<symbol id="icon-skip-back" viewBox="0 0 1024 1024">
	<title>skip-back</title>
	<path class="path1" d="M725.333 170.667q17.667 0 30.167 12.5t12.5 30.167q0 18-12.333 30.333l-268.667 268.333 268.667 268.667q12.333 12.333 12.333 30.333 0 17.667-12.5 30t-30.167 12.333q-18 0-30.333-12.333l-298.667-298.667q-12.333-13-12.333-30.333 0-17 12.333-30l298.667-298.667q12.667-12.667 30.333-12.667zM256 170.667q17.667 0 30.167 12.5t12.5 30.167v597.333q0 17.667-12.5 30.167t-30.167 12.5-30.167-12.5-12.5-30.167v-597.333q0-17.667 12.5-30.167t30.167-12.5z"></path>
</symbol>
<symbol id="icon-rewind" viewBox="0 0 1024 1024">
	<title>rewind</title>
	<path class="path1" d="M768 170.667q17.667 0 30.167 12.5t12.5 30.167-12.667 30.333l-268.333 268.333 268.333 268.333q12.667 12.667 12.667 30.333t-12.5 30.167-30.167 12.5q-18 0-30.333-12.333l-298.667-298.667q-12.333-12.333-12.333-30.333t12.333-30.333l298.667-298.667q12.333-12.333 30.333-12.333zM512 170.667q17.667 0 30.167 12.5t12.5 30.167-12.667 30.333l-268.333 268.333 268.333 268.333q12.667 12.667 12.667 30.333t-12.5 30.167-30.167 12.5q-18 0-30.333-12.333l-298.667-298.667q-12.333-12.333-12.333-30.333t12.333-30.333l298.667-298.667q12.333-12.333 30.333-12.333z"></path>
</symbol>
<symbol id="icon-play" viewBox="0 0 1024 1024">
	<title>play</title>
	<path class="path1" d="M170.667 896v-768l640 384zM644.667 512l-388.667-233.333v466.667z"></path>
</symbol>
<symbol id="icon-pause" viewBox="0 0 1024 1024">
	<title>pause</title>
	<path class="path1" d="M682.667 128q53 0 90.5 37.5t37.5 90.5v512q0 53-37.5 90.5t-90.5 37.5-90.5-37.5-37.5-90.5v-512q0-53 37.5-90.5t90.5-37.5zM341.333 128q53 0 90.5 37.5t37.5 90.5v512q0 53-37.5 90.5t-90.5 37.5-90.5-37.5-37.5-90.5v-512q0-53 37.5-90.5t90.5-37.5zM341.333 213.333q-17.667 0-30.167 12.5t-12.5 30.167v512q0 17.667 12.5 30.167t30.167 12.5 30.167-12.5 12.5-30.167v-512q0-17.667-12.5-30.167t-30.167-12.5zM682.667 213.333q-17.667 0-30.167 12.5t-12.5 30.167v512q0 17.667 12.5 30.167t30.167 12.5 30.167-12.5 12.5-30.167v-512q0-17.667-12.5-30.167t-30.167-12.5z"></path>
</symbol>
<symbol id="icon-fast-forward" viewBox="0 0 1024 1024">
	<title>fast-forward</title>
	<path class="path1" d="M469.333 170.667q17.667 0 30 12.333l298.667 298.667q12.667 12.667 12.667 30.333t-12.667 30.333l-298.667 298.667q-12.333 12.333-30 12.333t-30.167-12.5-12.5-30.167q0-18 12.333-30.333l268.333-268.333-268.333-268.333q-12.333-12.333-12.333-30.333 0-18.333 12.167-30.5t30.5-12.167zM213.333 170.667q17.667 0 30 12.333l298.667 298.667q12.667 12.667 12.667 30.333t-12.667 30.333l-298.667 298.667q-12.333 12.333-30 12.333t-30.167-12.5-12.5-30.167q0-18 12.333-30.333l268.333-268.333-268.333-268.333q-12.333-12.333-12.333-30.333 0-18.333 12.167-30.5t30.5-12.167z"></path>
</symbol>
<symbol id="icon-skip-forward" viewBox="0 0 1024 1024">
	<title>skip-forward</title>
	<path class="path1" d="M256 170.667q17.667 0 30.333 12.667l298.667 298.667q12.333 12.333 12.333 30 0 18-12.333 30.333l-298.667 298.667q-12.333 12.333-30.333 12.333-17.667 0-30.167-12.333t-12.5-30q0-17.333 12.333-30.333l268.667-268.667-268.667-268.333q-12.333-13-12.333-30.333 0-17.667 12.5-30.167t30.167-12.5zM725.333 170.667q17.667 0 30.167 12.5t12.5 30.167v597.333q0 17.667-12.5 30.167t-30.167 12.5-30.167-12.5-12.5-30.167v-597.333q0-17.667 12.5-30.167t30.167-12.5z"></path>
</symbol>
<symbol id="icon-shuffle" viewBox="0 0 1024 1024">
	<title>shuffle</title>
	<path class="path1" d="M768 0q17.667 0 30.333 12.667l170.667 170.667q12.333 12.333 12.333 30 0 18-12.333 30.333l-170.667 170.667q-12.333 12.333-30.333 12.333-17.667 0-30.167-12.5t-12.5-30.167q0-17 12.333-30l98-98h-67.667q-60 0-112.667 26.167t-88.333 71.5q-55 70-55 158.333 0 89-42.667 165.333-22.667 41-55 73.667-47.333 48.333-110.333 75.333t-133.333 27h-85.333q-17.667 0-30.167-12.5t-12.5-30.167 12.5-30.167 30.167-12.5h85.333q60.333 0 112.833-26t88.167-71.333q55-70 55-158.667 0-89 42.667-165.333 23-41.333 55-73.333 47.333-48.333 110.333-75.5t133.333-27.167h67.667l-98-97.667q-12.333-13-12.333-30.333 0-17.667 12.5-30.167t30.167-12.5zM768 597.333q17.667 0 30.333 12.667l170.667 170.667q12.333 12.333 12.333 30.333 0 17.667-12.333 30l-170.667 170.667q-12.333 12.333-30.333 12.333-17.667 0-30.167-12.333t-12.5-30q0-17.333 12.333-30.333l98-98h-67.667q-70.333 0-133.333-27t-110.333-75.333q25.667-37.667 42.667-80.333 35.667 45.333 88.167 71.333t112.833 26h67.667l-98-97.667q-12.333-13-12.333-30.333 0-17.667 12.5-30.167t30.167-12.5zM85.333 170.667h85.333q70.333 0 133.333 27.167t110.333 75.5q-26 38.333-42.667 80.333-35.667-45.333-88.333-71.5t-112.667-26.167h-85.333q-17.667 0-30.167-12.5t-12.5-30.167 12.5-30.167 30.167-12.5z"></path>
</symbol>
<symbol id="icon-repeat" viewBox="0 0 1024 1024">
	<title>repeat</title>
	<path class="path1" d="M42.667 554.667h256q17.667 0 30.167 12.5t12.5 30.167-12.5 30.167-30.167 12.5h-144l116 113.333q49.333 49.667 113 75 61 25 128.333 25t128.333-25q33.333-13.667 62.5-33.5t49.667-40.667 37.333-44.667 27-43.833 17.167-40q6-16.667 22-24.167t32.333-1.833q16.667 6 24.167 21.833t1.833 32.167q-14 42.667-40.667 84.667t-60 75.333q-61.333 61.333-141 93.667-77.333 31.333-160.667 31.333-83 0-160.667-31.333-79.667-32.333-141-93.667l-125-122.333v162q0 17.667-12.5 30.167t-30.167 12.5-30.167-12.5-12.5-30.167v-256q0-17.667 12.5-30.167t30.167-12.5zM512 85.333q83 0 160.667 31.333 79.667 32.333 141 93.667l0.667 0.667 124.333 121.667v-162q0-17.667 12.5-30.167t30.167-12.5 30.167 12.5 12.5 30.167v256q0 17.667-12.5 30.167t-30.167 12.5h-256q-17.667 0-30.167-12.5t-12.5-30.167 12.5-30.167 30.167-12.5h144l-116-113.333q-48.667-48.667-110.833-74.333t-130.5-25.667q-67.333 0-128.333 25-63.667 25.333-113 75-20 17.667-43.833 53.833t-36.833 73.833q-6 16.667-22 24.167t-32.333 1.833q-16.667-6-24.167-21.833t-1.833-32.167q14-42.667 40.667-84.667t60-75.333q61.333-61.333 141-93.667 77.667-31.333 160.667-31.333z"></path>
</symbol>
<symbol id="icon-folder" viewBox="0 0 1024 1024">
	<title>folder</title>
	<path class="path1" d="M170.667 85.333h213.333l85.333 128h384q53 0 90.5 37.5t37.5 90.5v469.333q0 53-37.5 90.5t-90.5 37.5h-682.667q-53 0-90.5-37.5t-37.5-90.5v-597.333q0-53 37.5-90.5t90.5-37.5zM423.667 298.667l-82.333-128h-170.667q-17.667 0-30.167 12.5t-12.5 30.167v597.333q0 17.667 12.5 30.167t30.167 12.5h682.667q17.667 0 30.167-12.5t12.5-30.167v-469.333q0-17.667-12.5-30.167t-30.167-12.5h-429.667z"></path>
</symbol>
<symbol id="icon-star" viewBox="0 0 1024 1024">
	<title>star</title>
	<path class="path1" d="M396.667 384l115.333-355 115.333 355h373.333l-302 209.667 115.333 348.667-302-221-302 219.333 115.333-347-302-209.667h373.333zM565.333 469.333l-53.333-169.667-53.333 169.667h-165.667l133.333 88.333-52.333 157.667 138.333-100 137.667 101-52.333-157.667 133-89.333h-165.333z"></path>
</symbol>
<symbol id="icon-check" viewBox="0 0 1024 1024">
	<title>check</title>
	<path class="path1" d="M896 213.333q18.333 0 30.5 12.167t12.167 30.5q0 18-12.333 30.333l-512 512q-12.333 12.333-30.333 12.333t-30.333-12.333l-256-256q-12.333-12.333-12.333-30.333 0-18.333 12.167-30.5t30.5-12.167q18 0 30.333 12.333l225.667 226 481.667-482q12.333-12.333 30.333-12.333z"></path>
</symbol>
<symbol id="icon-cross" viewBox="0 0 1024 1024">
	<title>cross</title>
	<path class="path1" d="M810.667 170.667q18.333 0 30.5 12.167t12.167 30.5q0 18-12.333 30.333l-268.667 268.333 268.667 268.333q12.333 12.333 12.333 30.333 0 18.333-12.167 30.5t-30.5 12.167q-18 0-30.333-12.333l-268.333-268.667-268.333 268.667q-12.333 12.333-30.333 12.333-18.333 0-30.5-12.167t-12.167-30.5q0-18 12.333-30.333l268.667-268.333-268.667-268.333q-12.333-12.333-12.333-30.333 0-18.333 12.167-30.5t30.5-12.167q18 0 30.333 12.333l268.333 268.667 268.333-268.667q12.333-12.333 30.333-12.333z"></path>
</symbol>
<symbol id="icon-menu" viewBox="0 0 1024 1024">
	<title>menu</title>
	<path class="path1" d="M128 213.333h768q17.667 0 30.167 12.5t12.5 30.167-12.5 30.167-30.167 12.5h-768q-17.667 0-30.167-12.5t-12.5-30.167 12.5-30.167 30.167-12.5zM128 725.333h768q17.667 0 30.167 12.5t12.5 30.167-12.5 30.167-30.167 12.5h-768q-17.667 0-30.167-12.5t-12.5-30.167 12.5-30.167 30.167-12.5zM128 469.333h768q17.667 0 30.167 12.5t12.5 30.167-12.5 30.167-30.167 12.5h-768q-17.667 0-30.167-12.5t-12.5-30.167 12.5-30.167 30.167-12.5z"></path>
</symbol>
<symbol id="icon-ellipsis" viewBox="0 0 1024 1024">
	<title>ellipsis</title>
	<path class="path1" d="M853.333 384q53 0 90.5 37.5t37.5 90.5-37.5 90.5-90.5 37.5-90.5-37.5-37.5-90.5 37.5-90.5 90.5-37.5zM170.667 384q53 0 90.5 37.5t37.5 90.5-37.5 90.5-90.5 37.5-90.5-37.5-37.5-90.5 37.5-90.5 90.5-37.5zM170.667 469.333q-17.667 0-30.167 12.5t-12.5 30.167 12.5 30.167 30.167 12.5 30.167-12.5 12.5-30.167-12.5-30.167-30.167-12.5zM512 384q53 0 90.5 37.5t37.5 90.5-37.5 90.5-90.5 37.5-90.5-37.5-37.5-90.5 37.5-90.5 90.5-37.5zM512 469.333q-17.667 0-30.167 12.5t-12.5 30.167 12.5 30.167 30.167 12.5 30.167-12.5 12.5-30.167-12.5-30.167-30.167-12.5zM853.333 469.333q-17.667 0-30.167 12.5t-12.5 30.167 12.5 30.167 30.167 12.5 30.167-12.5 12.5-30.167-12.5-30.167-30.167-12.5z"></path>
</symbol>
<symbol id="icon-headphones" viewBox="0 0 1024 1024">
	<title>headphones</title>
	<path class="path1" d="M288 576h-64v448h64c17.6 0 32-14.4 32-32v-384c0-17.6-14.4-32-32-32z"></path>
	<path class="path2" d="M736 576c-17.602 0-32 14.4-32 32v384c0 17.6 14.398 32 32 32h64v-448h-64z"></path>
	<path class="path3" d="M1024 512c0-282.77-229.23-512-512-512s-512 229.23-512 512c0 61.412 10.83 120.29 30.656 174.848-19.478 33.206-30.656 71.87-30.656 113.152 0 112.846 83.448 206.188 192 221.716v-443.418c-31.914 4.566-61.664 15.842-87.754 32.378-5.392-26.718-8.246-54.364-8.246-82.676 0-229.75 186.25-416 416-416s416 186.25 416 416c0 28.314-2.83 55.968-8.22 82.696-26.1-16.546-55.854-27.848-87.78-32.418v443.44c108.548-15.532 192-108.874 192-221.714 0-41.274-11.178-79.934-30.648-113.138 19.828-54.566 30.648-113.452 30.648-174.866z"></path>
</symbol>
<symbol id="icon-github5" viewBox="0 0 1024 1024">
	<title>github5</title>
	<path class="path1" d="M235.278 248.72c-50.792 0-94.484 16.806-131.084 50.416-38.086 35.852-57.14 80.66-57.14 134.436 0 35.852 10.376 69.462 31.294 100.832 18.674 29.126 38.18 47.806 63.778 56.024v2.242c-25.598 10.448-36.966 36.59-36.966 78.418 0 32.124 11.372 56.022 36.966 71.708v2.242c-70.654 23.146-102.992 66.094-102.992 128.83 0 54.534 23.748 94.488 70.066 119.878 36.59 20.172 83.578 30.254 140.346 30.254 138.17 0 207.406-57.882 207.406-173.664 0-72.446-53.322-116.882-160.128-133.316-24.646-3.726-43.286-12.696-55.982-26.89-9.708-9.708-14.542-19.418-14.542-29.126 0-27.632 14.958-43.696 44.82-48.176 45.558-6.714 82.728-27.824 111.486-63.296 28.75-35.48 43.13-77.118 43.13-124.916 0-14.938-4.518-30.996-10.488-48.172 19.418-4.488 33.050-8.594 43.292-12.332v-115.392c-45.054 17.928-86.99 26.884-122.842 26.884-31.374-17.922-63.824-26.884-100.42-26.884zM247.602 807.77c62.744 0 94.104 19.042 94.104 57.14 0 40.336-28.754 60.492-86.264 60.492-65.724 0-98.586-19.422-98.586-58.254-0.002-39.59 30.244-59.378 90.746-59.378zM239.76 512c-47.054 0-70.586-25.764-70.586-77.308 0-55.262 23.532-82.906 70.586-82.906 22.402 0 39.958 8.596 52.652 25.768 10.458 15.69 15.69 34.36 15.69 56.022 0 52.278-22.786 78.424-68.342 78.424zM580.384 0c-21.656 0-40.14 8.214-55.454 24.648-15.314 16.436-22.97 36.216-22.97 59.376 0 22.41 7.658 41.82 22.97 58.258 15.308 16.434 33.792 24.64 55.454 24.64 20.91 0 39.028-8.208 54.34-24.64 15.312-16.438 22.96-35.848 22.96-58.258 0-23.16-7.648-42.944-22.96-59.376-15.318-16.434-33.43-24.648-54.34-24.648zM643.13 255.998h-126.606c1.496 14.336-0.64 36.042-0.64 71.14v348.432c0 35.856 2.136 64.774 0.64 76.036h126.606c-1.5-16.376-5.394-44.668-5.394-82.758v-343.946c-0.006-32.864 3.894-54.568 5.394-68.904zM922.336 644.2c-32.872 0-49.082-25.028-49.082-75.066v-206.64h49.864c8.96 0 17.032-0.492 27.118 0.246 10.086 0.748 14.152 0.25 19.278 0.25v-106.99h-96.258v-47.616c0-17.922 2.816-34.302 5.054-44.542h-129.958c2.242 10.24 2.028 25.876 2.028 46.79v45.368h-56.32v106.988c15.364-2.24 29.090-3.356 38.796-3.356l17.524 1.118v202.786c0 62.742 7.958 108.672 23.636 137.8 20.922 38.84 57.622 58.258 112.136 58.258 38.848 0 73.118-7.464 98.714-22.41v-112.032c-20.474 12.7-39.382 19.048-62.53 19.048z"></path>
</symbol>
<symbol id="icon-chrome" viewBox="0 0 1024 1024">
	<title>chrome</title>
	<path class="path1" d="M258.278 446.542l-146.532-253.802c93.818-117.464 238.234-192.74 400.254-192.74 187.432 0 351.31 100.736 440.532 251h-417.77c-7.504-0.65-15.092-1-22.762-1-121.874 0-224.578 83.644-253.722 196.542zM695.306 325h293.46c22.74 57.93 35.234 121.004 35.234 187 0 280.826-226.1 508.804-506.186 511.926l209.394-362.678c29.48-42.378 46.792-93.826 46.792-149.248 0-73.17-30.164-139.42-78.694-187zM326 512c0-102.56 83.44-186 186-186s186 83.44 186 186c0 102.56-83.44 186-186 186s-186-83.44-186-186zM582.182 764.442l-146.578 253.878c-246.532-36.884-435.604-249.516-435.604-506.32 0-91.218 23.884-176.846 65.696-251.024l209.030 362.054c41.868 89.112 132.476 150.97 237.274 150.97 24.3 0 47.836-3.34 70.182-9.558z"></path>
</symbol>
<symbol id="icon-firefox" viewBox="0 0 1024 1024">
	<title>firefox</title>
	<path class="path1" d="M1022.526 334.14l-11.86 76.080c0 0-16.954-140.856-37.732-193.514-31.846-80.688-46.014-80.040-46.108-79.922 21.33 54.204 17.462 83.324 17.462 83.324s-37.792-102.998-137.712-135.768c-110.686-36.282-170.57-26.364-177.488-24.486-1.050-0.008-2.064-0.010-3.030-0.010 0.818 0.062 1.612 0.146 2.426 0.212-0.034 0.020-0.090 0.042-0.082 0.052 0.45 0.548 122.306 21.302 143.916 50.996 0 0-51.76 0-103.272 14.842-2.328 0.666 189.524 23.964 228.746 215.674 0 0-21.030-43.876-47.040-51.328 17.106 52.036 12.714 150.776-3.576 199.85-2.096 6.312-4.24-27.282-36.328-41.75 10.28 73.646-0.616 190.456-51.708 222.632-3.982 2.504 32.030-115.31 7.242-69.762-142.708 218.802-311.404 100.972-387.248 49.11 38.866 8.462 112.654-1.318 145.314-25.612 0.042-0.030 0.078-0.056 0.118-0.086 35.468-24.252 56.472-41.964 75.334-37.772 18.874 4.214 31.438-14.726 16.78-31.53-14.676-16.838-50.314-39.978-98.524-27.366-34 8.904-76.134 46.522-140.448 8.432-49.364-29.25-54.012-53.546-54.45-70.376 1.218-5.966 2.754-11.536 4.576-16.624 5.682-15.87 22.912-20.658 32.494-24.438 16.256 2.792 30.262 7.862 44.968 15.406 0.19-4.894 0.252-11.39-0.018-18.76 1.41-2.802 0.538-11.252-1.722-21.58-1.302-10.308-3.42-20.974-6.752-30.692 0.012-0.002 0.020-0.010 0.030-0.014 0.056-0.018 0.108-0.040 0.156-0.070 0.078-0.044 0.146-0.112 0.208-0.19 0.012-0.020 0.030-0.034 0.044-0.052 0.082-0.124 0.154-0.272 0.198-0.466 1.020-4.618 12.022-13.524 25.718-23.1 12.272-8.58 26.702-17.696 38.068-24.752 10.060-6.248 17.72-10.882 19.346-12.098 0.618-0.466 1.358-1.012 2.164-1.636 0.15-0.116 0.3-0.232 0.454-0.354 0.094-0.074 0.19-0.148 0.286-0.226 5.41-4.308 13.484-12.448 15.178-29.578 0.004-0.042 0.010-0.080 0.012-0.122 0.050-0.504 0.092-1.014 0.13-1.534 0.028-0.362 0.050-0.726 0.072-1.096 0.014-0.284 0.032-0.566 0.044-0.856 0.030-0.674 0.050-1.364 0.060-2.064 0-0.040 0.002-0.076 0.004-0.116 0.022-1.658-0.006-3.386-0.104-5.202-0.054-1.014-0.126-1.93-0.298-2.762-0.008-0.044-0.018-0.092-0.028-0.136-0.018-0.082-0.036-0.164-0.058-0.244-0.036-0.146-0.076-0.292-0.122-0.43-0.006-0.018-0.010-0.032-0.016-0.046-0.052-0.16-0.112-0.314-0.174-0.464-0.004-0.006-0.004-0.010-0.006-0.016-1.754-4.108-8.32-5.658-35.442-6.118-0.026-0.002-0.050-0.002-0.076-0.002v0c-11.066-0.188-25.538-0.194-44.502-0.118-33.25 0.134-51.628-32.504-57.494-45.132 8.040-44.46 31.276-76.142 69.45-97.626 0.722-0.406 0.58-0.742-0.274-0.978 7.464-4.514-90.246-0.124-135.186 57.036-39.888-9.914-74.654-9.246-104.616-2.214-5.754-0.162-12.924-0.88-21.434-2.652-19.924-18.056-48.448-51.402-49.976-91.208 0 0-0.092 0.072-0.252 0.204-0.020-0.382-0.056-0.76-0.072-1.142 0 0-60.716 46.664-51.628 173.882-0.022 2.036-0.064 3.986-0.12 5.874-16.432 22.288-24.586 41.020-25.192 45.156-14.56 29.644-29.334 74.254-41.356 141.98 0 0 8.408-26.666 25.284-56.866-12.412 38.022-22.164 97.156-16.436 185.856 0 0 1.514-19.666 6.874-47.994 4.186 55.010 22.518 122.924 68.858 202.788 88.948 153.32 225.67 230.74 376.792 242.616 26.836 2.212 54.050 2.264 81.424 0.186 2.516-0.178 5.032-0.364 7.55-0.574 30.964-2.174 62.134-6.852 93.238-14.366 425.172-102.798 378.942-616.198 378.942-616.198z"></path>
</symbol>
</defs>
</svg>
